<!-- Generated by IcoMoon.io -->
<svg version="1.1" xmlns="http://www.w3.org/2000/svg" width="512" height="512" viewBox="0 0 512 512">
<title>spinner4</title>
<g id="icomoon-ignore">
</g>
<path d="M361.026 181.861l-28.908 20.649-22.628-22.627 20.648-28.909c-2.997-5.361-5.387-11.102-7.096-17.133l-35.042-5.841v-32l35.043-5.84c1.709-6.031 4.099-11.772 7.096-17.133l-20.649-28.909 22.628-22.628 28.908 20.649c5.36-2.997 11.103-5.387 17.133-7.096l5.841-35.043h32l5.841 35.043c6.030 1.709 11.772 4.099 17.133 7.096l28.908-20.649 22.628 22.627-20.648 28.909c2.997 5.361 5.387 11.102 7.096 17.133l35.042 5.841v32l-35.043 5.84c-1.709 6.031-4.099 11.772-7.096 17.133l20.648 28.909-22.628 22.627-28.908-20.649c-5.36 2.997-11.103 5.387-17.133 7.096l-5.84 35.044h-32l-5.841-35.043c-6.030-1.709-11.772-4.099-17.133-7.096zM432 112c0-17.674-14.327-32-32-32s-32 14.326-32 32 14.327 32 32 32 32-14.326 32-32zM192 512h-32l-6.125-33.691c-4.023-0.621-7.989-1.416-11.895-2.362l-18.55 28.779-29.564-12.246 7.234-33.472c-3.455-2.107-6.81-4.363-10.065-6.746l-28.171 19.503-22.627-22.628 19.503-28.171c-2.383-3.256-4.638-6.61-6.747-10.065l-33.472 7.234-12.247-29.564 28.779-18.55c-0.946-3.906-1.741-7.872-2.362-11.895l-33.691-6.126v-32l33.691-6.126c0.621-4.023 1.416-7.988 2.362-11.895l-28.779-18.549 12.246-29.564 33.472 7.234c2.108-3.455 4.364-6.81 6.747-10.065l-19.503-28.171 22.627-22.627 28.171 19.503c3.255-2.383 6.61-4.639 10.065-6.747l-7.234-33.472 29.564-12.246 18.55 28.779c3.906-0.946 7.871-1.741 11.895-2.362l6.126-33.692h32l6.125 33.691c4.023 0.621 7.989 1.416 11.895 2.362l18.55-28.779 29.564 12.246-7.234 33.472c3.455 2.108 6.809 4.364 10.065 6.747l28.171-19.503 22.628 22.627-19.503 28.171c2.383 3.255 4.638 6.61 6.746 10.065l33.472-7.234 12.246 29.564-28.779 18.551c0.946 3.905 1.741 7.871 2.362 11.894l33.692 6.126v32l-33.691 6.126c-0.621 4.022-1.416 7.988-2.362 11.895l28.779 18.55-12.246 29.564-33.472-7.234c-2.108 3.455-4.363 6.81-6.746 10.065l19.503 28.171-22.628 22.628-28.171-19.503c-3.256 2.383-6.61 4.638-10.065 6.746l7.234 33.472-29.565 12.246-18.55-28.779c-3.906 0.946-7.871 1.741-11.895 2.362l-6.125 33.691zM245.6 336c0-38.439-31.161-69.6-69.6-69.6s-69.6 31.16-69.6 69.6 31.161 69.6 69.6 69.6c38.439 0 69.6-31.16 69.6-69.6z"></path>
</svg>
